<svg width="485" height="17" viewBox="0 0 485 17" fill="none" xmlns="http://www.w3.org/2000/svg">
<path d="M11.2532 3.28218C11.2532 2.52024 10.6085 1.87553 9.84653 1.87553H7.50211C7.50211 0.849849 6.65227 0 5.62659 0C4.5716 0 3.75106 0.849849 3.75106 1.87553H1.40665C0.615408 1.87553 0 2.52024 0 3.28218V13.5976C0 14.3888 0.615408 15.0042 1.40665 15.0042H9.84653C10.6085 15.0042 11.2532 14.3888 11.2532 13.5976V3.28218ZM5.62659 1.17221C6.00755 1.17221 6.32991 1.49456 6.32991 1.87553C6.32991 2.2858 6.00755 2.57885 5.62659 2.57885C5.21631 2.57885 4.92326 2.2858 4.92326 1.87553C4.92326 1.49456 5.21631 1.17221 5.62659 1.17221ZM8.43988 4.51299C8.43988 4.63021 8.35196 4.68882 8.26405 4.68882H2.98912C2.8719 4.68882 2.81329 4.63021 2.81329 4.51299V3.92689C2.81329 3.83897 2.8719 3.75106 2.98912 3.75106H8.26405C8.35196 3.75106 8.43988 3.83897 8.43988 3.92689V4.51299ZM19.2828 7.71458C19.2828 9.10657 19.6027 10.2006 20.2425 10.9968C20.8824 11.788 21.8274 12.1836 23.0778 12.1836C24.3281 12.1836 25.2684 11.788 25.8984 10.9968C26.5334 10.2055 26.8508 9.11146 26.8508 7.71458C26.8508 6.28839 26.5309 5.18212 25.8911 4.39577C25.2561 3.60942 24.3208 3.21624 23.0851 3.21624C21.8494 3.21624 20.9068 3.60942 20.2572 4.39577C19.6076 5.18212 19.2828 6.28839 19.2828 7.71458ZM28.2062 7.71458C28.2062 8.54001 28.0914 9.29461 27.8619 9.9784C27.6372 10.6622 27.3099 11.2507 26.8801 11.744C26.4552 12.2325 25.918 12.6134 25.2684 12.8869C24.6188 13.1556 23.8886 13.2899 23.0778 13.2899C21.9837 13.2899 21.046 13.0579 20.2645 12.5939C19.4879 12.125 18.9043 11.4754 18.5135 10.6451C18.1277 9.80989 17.9347 8.83061 17.9347 7.70725C17.9347 5.97336 18.3865 4.60579 19.2901 3.60453C20.1937 2.60327 21.4587 2.10264 23.0851 2.10264C24.6871 2.10264 25.9399 2.60816 26.8435 3.61918C27.752 4.62533 28.2062 5.99046 28.2062 7.71458ZM30.0744 13.1287V5.09177H31.1001L31.2539 6.24199C31.5714 5.84637 31.967 5.5289 32.4408 5.28958C32.9194 5.04537 33.4347 4.92326 33.9866 4.92326C34.9146 4.92326 35.6009 5.18457 36.0453 5.70718C36.4898 6.2249 36.712 7.02346 36.712 8.10287V13.1287H35.4885C35.4885 9.90514 35.4861 8.17858 35.4812 7.94902C35.4617 7.26523 35.3225 6.7646 35.0636 6.44713C34.8096 6.12966 34.3823 5.97092 33.7815 5.97092C33.1514 5.97092 32.6264 6.12233 32.2063 6.42515C31.7863 6.72797 31.5128 7.12115 31.3858 7.60468C31.337 7.93192 31.3125 8.30801 31.3125 8.73293V13.1287H30.0744ZM43.3789 6.579C43.0224 6.14919 42.5315 5.93429 41.9063 5.93429C41.2812 5.93429 40.7708 6.15652 40.3752 6.60098C39.9795 7.04056 39.7475 7.64376 39.6792 8.41057H43.9211C43.9211 7.61445 43.7404 7.00393 43.3789 6.579ZM42.1481 13.2972C40.9808 13.2972 40.0601 12.926 39.3861 12.1836C38.717 11.4412 38.3824 10.4253 38.3824 9.13588C38.3824 7.89041 38.7072 6.88182 39.3568 6.11012C40.0064 5.33353 40.8611 4.93792 41.921 4.92326C42.9174 4.92326 43.7062 5.26516 44.2874 5.94894C44.8735 6.62784 45.1665 7.5363 45.1665 8.67432C45.1665 8.73293 45.1641 8.84038 45.1592 8.99668C45.1592 9.15297 45.1592 9.26531 45.1592 9.33369H39.6425C39.6572 10.247 39.8916 10.9601 40.3458 11.473C40.805 11.9809 41.4204 12.2349 42.1921 12.2349C43.0419 12.2349 43.8942 12.0102 44.7489 11.5609L44.9394 12.5499C44.1238 13.0481 43.1933 13.2972 42.1481 13.2972ZM51.5111 9.12855C51.5111 10.081 51.7211 10.8453 52.1412 11.4217C52.5661 11.9931 53.1839 12.2789 53.9947 12.2789C54.7957 12.2789 55.3989 11.9931 55.8043 11.4217C56.2146 10.8502 56.4197 10.081 56.4197 9.1139C56.4197 8.13218 56.217 7.36047 55.8116 6.79879C55.4111 6.23223 54.7982 5.94894 53.9727 5.94894C53.1717 5.94894 52.5612 6.23711 52.1412 6.81344C51.7211 7.38978 51.5111 8.16148 51.5111 9.12855ZM57.6872 9.10657C57.6872 10.352 57.355 11.3631 56.6908 12.1397C56.0265 12.9114 55.1083 13.2972 53.9361 13.2972C52.8079 13.2972 51.9092 12.9065 51.24 12.125C50.5758 11.3435 50.2437 10.3398 50.2437 9.1139C50.2437 7.86354 50.5782 6.85252 51.2474 6.08082C51.9165 5.30911 52.8347 4.92326 54.002 4.92326C55.1498 4.92326 56.051 5.31156 56.7054 6.08814C57.3599 6.85984 57.6872 7.86599 57.6872 9.10657ZM59.4235 13.1287V5.09177H60.4492L60.603 6.24199C60.9205 5.84637 61.3161 5.5289 61.7899 5.28958C62.2685 5.04537 62.7838 4.92326 63.3357 4.92326C64.2637 4.92326 64.9499 5.18457 65.3944 5.70718C65.8389 6.2249 66.0611 7.02346 66.0611 8.10287V13.1287H64.8376C64.8376 9.90514 64.8352 8.17858 64.8303 7.94902C64.8108 7.26523 64.6716 6.7646 64.4127 6.44713C64.1587 6.12966 63.7313 5.97092 63.1306 5.97092C62.5005 5.97092 61.9755 6.12233 61.5554 6.42515C61.1354 6.72797 60.8619 7.12115 60.7349 7.60468C60.6861 7.93192 60.6616 8.30801 60.6616 8.73293V13.1287H59.4235ZM72.7427 9.12855C72.7427 10.081 72.9527 10.8453 73.3727 11.4217C73.7977 11.9931 74.4155 12.2789 75.2263 12.2789C76.0273 12.2789 76.6305 11.9931 77.0359 11.4217C77.4461 10.8502 77.6513 10.081 77.6513 9.1139C77.6513 8.13218 77.4486 7.36047 77.0432 6.79879C76.6427 6.23223 76.0297 5.94894 75.2043 5.94894C74.4033 5.94894 73.7928 6.23711 73.3727 6.81344C72.9527 7.38978 72.7427 8.16148 72.7427 9.12855ZM78.9187 9.10657C78.9187 10.352 78.5866 11.3631 77.9224 12.1397C77.2581 12.9114 76.3399 13.2972 75.1677 13.2972C74.0394 13.2972 73.1407 12.9065 72.4716 12.125C71.8074 11.3435 71.4752 10.3398 71.4752 9.1139C71.4752 7.86354 71.8098 6.85252 72.4789 6.08082C73.1481 5.30911 74.0663 4.92326 75.2336 4.92326C76.3814 4.92326 77.2825 5.31156 77.937 6.08814C78.5915 6.85984 78.9187 7.86599 78.9187 9.10657ZM80.6551 13.1287V5.09177H81.6807L81.8346 6.24199C82.1521 5.84637 82.5477 5.5289 83.0215 5.28958C83.5001 5.04537 84.0154 4.92326 84.5673 4.92326C85.4953 4.92326 86.1815 5.18457 86.626 5.70718C87.0704 6.2249 87.2927 7.02346 87.2927 8.10287V13.1287H86.0692C86.0692 9.90514 86.0667 8.17858 86.0619 7.94902C86.0423 7.26523 85.9031 6.7646 85.6443 6.44713C85.3903 6.12966 84.9629 5.97092 84.3622 5.97092C83.7321 5.97092 83.207 6.12233 82.787 6.42515C82.367 6.72797 82.0935 7.12115 81.9665 7.60468C81.9176 7.93192 81.8932 8.30801 81.8932 8.73293V13.1287H80.6551ZM93.9596 6.579C93.603 6.14919 93.1122 5.93429 92.487 5.93429C91.8618 5.93429 91.3514 6.15652 90.9558 6.60098C90.5602 7.04056 90.3282 7.64376 90.2598 8.41057H94.5017C94.5017 7.61445 94.321 7.00393 93.9596 6.579ZM92.7288 13.2972C91.5615 13.2972 90.6408 12.926 89.9668 12.1836C89.2976 11.4412 88.9631 10.4253 88.9631 9.13588C88.9631 7.89041 89.2879 6.88182 89.9375 6.11012C90.5871 5.33353 91.4418 4.93792 92.5017 4.92326C93.498 4.92326 94.2868 5.26516 94.8681 5.94894C95.4542 6.62784 95.7472 7.5363 95.7472 8.67432C95.7472 8.73293 95.7448 8.84038 95.7399 8.99668C95.7399 9.15297 95.7399 9.26531 95.7399 9.33369H90.2232C90.2378 10.247 90.4723 10.9601 90.9265 11.473C91.3856 11.9809 92.001 12.2349 92.7727 12.2349C93.6226 12.2349 94.4749 12.0102 95.3296 11.5609L95.5201 12.5499C94.7044 13.0481 93.774 13.2972 92.7288 13.2972ZM104.597 13.2972C103.415 13.2972 102.49 12.9138 101.821 12.147C101.156 11.3802 100.824 10.3765 100.824 9.13588C100.829 7.88552 101.169 6.87205 101.843 6.09547C102.522 5.314 103.45 4.92326 104.627 4.92326C105.042 4.92326 105.442 4.97455 105.828 5.07711C106.219 5.17968 106.527 5.314 106.751 5.48006L106.414 6.43248C105.843 6.12477 105.24 5.97092 104.605 5.97092C103.828 5.97092 103.213 6.2542 102.758 6.82077C102.309 7.38734 102.084 8.16148 102.084 9.1432C102.084 10.1005 102.307 10.86 102.751 11.4217C103.2 11.9785 103.821 12.2569 104.612 12.2569C105.242 12.2569 105.887 12.0859 106.546 11.744L106.7 12.7184C106.168 13.1043 105.467 13.2972 104.597 13.2972ZM109.184 9.12855C109.184 10.081 109.394 10.8453 109.814 11.4217C110.239 11.9931 110.856 12.2789 111.667 12.2789C112.468 12.2789 113.071 11.9931 113.477 11.4217C113.887 10.8502 114.092 10.081 114.092 9.1139C114.092 8.13218 113.89 7.36047 113.484 6.79879C113.084 6.23223 112.471 5.94894 111.645 5.94894C110.844 5.94894 110.234 6.23711 109.814 6.81344C109.394 7.38978 109.184 8.16148 109.184 9.12855ZM115.36 9.10657C115.36 10.352 115.028 11.3631 114.363 12.1397C113.699 12.9114 112.781 13.2972 111.609 13.2972C110.48 13.2972 109.582 12.9065 108.913 12.125C108.248 11.3435 107.916 10.3398 107.916 9.1139C107.916 7.86354 108.251 6.85252 108.92 6.08082C109.589 5.30911 110.507 4.92326 111.675 4.92326C112.822 4.92326 113.723 5.31156 114.378 6.08814C115.032 6.85984 115.36 7.86599 115.36 9.10657ZM117.096 13.1287V5.09177H118.122L118.276 6.24199C118.593 5.84637 118.989 5.5289 119.462 5.28958C119.941 5.04537 120.456 4.92326 121.008 4.92326C121.936 4.92326 122.622 5.18457 123.067 5.70718C123.511 6.2249 123.734 7.02346 123.734 8.10287V13.1287H122.51C122.51 9.90514 122.508 8.17858 122.503 7.94902C122.483 7.26523 122.344 6.7646 122.085 6.44713C121.831 6.12966 121.404 5.97092 120.803 5.97092C120.173 5.97092 119.648 6.12233 119.228 6.42515C118.808 6.72797 118.534 7.12115 118.407 7.60468C118.359 7.93192 118.334 8.30801 118.334 8.73293V13.1287H117.096ZM128.166 13.2972C127.619 13.2972 127.113 13.2386 126.649 13.1214C126.19 13.0042 125.817 12.8527 125.529 12.6671L125.682 11.6341C126.498 12.0688 127.299 12.2862 128.085 12.2862C129.277 12.2862 129.89 11.8661 129.924 11.0261C129.924 10.6695 129.797 10.3887 129.543 10.1835C129.289 9.9784 128.791 9.74884 128.049 9.49486L127.441 9.2824C126.737 9.04796 126.234 8.75735 125.931 8.41057C125.634 8.0638 125.482 7.63155 125.477 7.11382C125.477 6.48376 125.729 5.96115 126.232 5.546C126.74 5.13084 127.433 4.92326 128.313 4.92326C129.221 4.92326 130.049 5.09909 130.796 5.45076L130.437 6.38852C129.68 6.07593 128.972 5.91964 128.313 5.91964C127.8 5.91964 127.397 6.02221 127.104 6.22734C126.816 6.42759 126.671 6.71088 126.671 7.07719C126.671 7.38978 126.776 7.6291 126.986 7.79517C127.197 7.96123 127.617 8.15171 128.247 8.36662C128.408 8.42523 128.61 8.49361 128.855 8.57175C129.665 8.8355 130.239 9.14809 130.576 9.50952C130.913 9.86606 131.082 10.3496 131.082 10.9601C131.072 11.7025 130.806 12.2789 130.283 12.6891C129.761 13.0945 129.055 13.2972 128.166 13.2972ZM132.481 10.4473V5.09177H133.712V10.4619C133.712 10.8136 133.761 11.1115 133.859 11.3557C133.961 11.5999 134.105 11.7904 134.291 11.9272C134.481 12.0591 134.694 12.1543 134.928 12.2129C135.167 12.2715 135.441 12.3008 135.749 12.3008C136.384 12.3008 136.877 12.1616 137.229 11.8832C137.585 11.6048 137.763 11.1311 137.763 10.4619V5.09177H138.994V10.4473C138.994 10.8576 138.936 11.2263 138.818 11.5535C138.701 11.8808 138.542 12.1543 138.342 12.3741C138.147 12.589 137.91 12.7673 137.632 12.9089C137.353 13.0506 137.058 13.1531 136.745 13.2166C136.437 13.2801 136.105 13.3119 135.749 13.3119C135.397 13.3119 135.065 13.2801 134.752 13.2166C134.44 13.1531 134.142 13.0506 133.859 12.9089C133.58 12.7624 133.338 12.5817 133.133 12.3668C132.933 12.147 132.774 11.8735 132.657 11.5462C132.54 11.219 132.481 10.8527 132.481 10.4473ZM142.98 13.2752C142.198 13.2752 141.644 13.0652 141.317 12.6452C140.994 12.2251 140.833 11.4949 140.833 10.4546V1.97077L142.049 1.89751V9.97107C142.049 10.3032 142.052 10.5694 142.057 10.7696C142.066 10.9699 142.086 11.1677 142.115 11.3631C142.145 11.5535 142.184 11.6976 142.232 11.7953C142.281 11.893 142.352 11.9834 142.445 12.0664C142.538 12.1445 142.648 12.1983 142.775 12.2276C142.906 12.252 143.068 12.2642 143.258 12.2642C143.414 12.2642 143.722 12.2349 144.181 12.1763L144.247 13.1507C143.744 13.2337 143.322 13.2752 142.98 13.2752ZM147.559 13.2752C146.767 13.2752 146.206 13.0823 145.874 12.6965C145.542 12.3106 145.366 11.6879 145.346 10.8282V6.00023H144.152L144.203 5.19434L145.339 5.09177L145.756 3.25287L146.562 3.22356V5.09177H148.797V6.00023H146.562V10.6085C146.562 11.219 146.655 11.6488 146.841 11.8979C147.026 12.147 147.344 12.2715 147.793 12.2715C147.954 12.2715 148.304 12.2325 148.841 12.1543L148.892 13.1214C148.311 13.2239 147.866 13.2752 147.559 13.2752ZM160.885 13.1287C159.757 9.52417 159.059 7.27988 158.79 6.39585C158.638 6.93311 158.465 7.51433 158.27 8.1395C158.074 8.76468 157.903 9.30194 157.757 9.75128C157.61 10.2006 157.42 10.7818 157.185 11.4949C156.951 12.208 156.773 12.7526 156.651 13.1287H155.332L153.039 5.09177H154.306L156.028 11.6708C156.267 10.8893 156.971 8.6963 158.138 5.09177H159.523C160.685 8.77445 161.369 10.9601 161.574 11.6488L163.274 5.09177H164.526L162.211 13.1287H160.885ZM167.156 5.09177V13.1287H165.926V5.09177H167.156ZM167.156 2.16858V3.61918H165.926V2.16858H167.156ZM172.028 13.2752C171.237 13.2752 170.676 13.0823 170.343 12.6965C170.011 12.3106 169.835 11.6879 169.816 10.8282V6.00023H168.622L168.673 5.19434L169.809 5.09177L170.226 3.25287L171.032 3.22356V5.09177H173.267V6.00023H171.032V10.6085C171.032 11.219 171.125 11.6488 171.31 11.8979C171.496 12.147 171.814 12.2715 172.263 12.2715C172.424 12.2715 172.773 12.2325 173.311 12.1543L173.362 13.1214C172.781 13.2239 172.336 13.2752 172.028 13.2752ZM180.08 13.1287V8.27137C180.08 7.46548 179.951 6.87938 179.692 6.51307C179.438 6.14675 178.991 5.9636 178.351 5.9636C177.736 5.9636 177.215 6.11745 176.791 6.42515C176.371 6.73285 176.097 7.13092 175.97 7.61934C175.926 7.98565 175.904 8.39348 175.904 8.84282V13.1287H174.681V1.97077L175.904 1.89751V5.16503C175.904 5.44343 175.894 5.78776 175.875 6.19804C176.563 5.34819 177.477 4.92326 178.615 4.92326C180.407 4.92326 181.304 5.97581 181.304 8.08089V13.1287H180.08ZM187.172 11.8026V2.16858H188.469V11.3631C188.469 11.7196 188.461 12.02 188.447 12.2642C188.432 12.5084 188.403 12.7575 188.359 13.0115C188.315 13.2606 188.249 13.4657 188.161 13.6269C188.078 13.7881 187.968 13.9419 187.831 14.0884C187.695 14.2399 187.524 14.3546 187.318 14.4328C187.118 14.5158 186.879 14.5793 186.6 14.6233C186.322 14.6721 186 14.6965 185.633 14.6965H185.377L185.223 13.6562H185.765C186.024 13.6562 186.241 13.6244 186.417 13.561C186.598 13.4975 186.737 13.4169 186.835 13.3192C186.933 13.2264 187.006 13.0921 187.055 12.9162C187.108 12.7404 187.14 12.5768 187.15 12.4254C187.165 12.2691 187.172 12.0615 187.172 11.8026ZM191.487 9.12855C191.487 10.081 191.697 10.8453 192.117 11.4217C192.542 11.9931 193.16 12.2789 193.971 12.2789C194.772 12.2789 195.375 11.9931 195.78 11.4217C196.191 10.8502 196.396 10.081 196.396 9.1139C196.396 8.13218 196.193 7.36047 195.788 6.79879C195.387 6.23223 194.774 5.94894 193.949 5.94894C193.148 5.94894 192.537 6.23711 192.117 6.81344C191.697 7.38978 191.487 8.16148 191.487 9.12855ZM197.663 9.10657C197.663 10.352 197.331 11.3631 196.667 12.1397C196.003 12.9114 195.084 13.2972 193.912 13.2972C192.784 13.2972 191.885 12.9065 191.216 12.125C190.552 11.3435 190.22 10.3398 190.22 9.1139C190.22 7.86354 190.554 6.85252 191.223 6.08082C191.892 5.30911 192.811 4.92326 193.978 4.92326C195.126 4.92326 196.027 5.31156 196.681 6.08814C197.336 6.85984 197.663 7.86599 197.663 9.10657ZM204.03 6.579C203.673 6.14919 203.182 5.93429 202.557 5.93429C201.932 5.93429 201.422 6.15652 201.026 6.60098C200.63 7.04056 200.398 7.64376 200.33 8.41057H204.572C204.572 7.61445 204.391 7.00393 204.03 6.579ZM202.799 13.2972C201.632 13.2972 200.711 12.926 200.037 12.1836C199.368 11.4412 199.033 10.4253 199.033 9.13588C199.033 7.89041 199.358 6.88182 200.008 6.11012C200.657 5.33353 201.512 4.93792 202.572 4.92326C203.568 4.92326 204.357 5.26516 204.938 5.94894C205.524 6.62784 205.817 7.5363 205.817 8.67432C205.817 8.73293 205.815 8.84038 205.81 8.99668C205.81 9.15297 205.81 9.26531 205.81 9.33369H200.293C200.308 10.247 200.542 10.9601 200.997 11.473C201.456 11.9809 202.071 12.2349 202.843 12.2349C203.693 12.2349 204.545 12.0102 205.4 11.5609L205.59 12.5499C204.775 13.0481 203.844 13.2972 202.799 13.2972ZM206.491 5.09177H207.788L210.323 11.7807L212.579 5.09177H213.876C211.708 11.0602 210.587 14.1373 210.513 14.3229C210.176 15.1678 209.769 15.7857 209.29 16.1764C208.811 16.5721 208.181 16.7699 207.4 16.7699C207.165 16.7699 206.919 16.7503 206.66 16.7113L206.587 15.6709C206.86 15.6905 207.065 15.7002 207.202 15.7002C207.754 15.7002 208.171 15.5977 208.455 15.3925C208.743 15.1923 208.999 14.8137 209.224 14.2569C209.424 13.7441 209.573 13.3485 209.671 13.0701L206.491 5.09177ZM219.649 9.12855C219.649 10.081 219.859 10.8453 220.279 11.4217C220.704 11.9931 221.322 12.2789 222.133 12.2789C222.934 12.2789 223.537 11.9931 223.943 11.4217C224.353 10.8502 224.558 10.081 224.558 9.1139C224.558 8.13218 224.355 7.36047 223.95 6.79879C223.549 6.23223 222.936 5.94894 222.111 5.94894C221.31 5.94894 220.699 6.23711 220.279 6.81344C219.859 7.38978 219.649 8.16148 219.649 9.12855ZM225.825 9.10657C225.825 10.352 225.493 11.3631 224.829 12.1397C224.165 12.9114 223.247 13.2972 222.074 13.2972C220.946 13.2972 220.047 12.9065 219.378 12.125C218.714 11.3435 218.382 10.3398 218.382 9.1139C218.382 7.86354 218.716 6.85252 219.386 6.08082C220.055 5.30911 220.973 4.92326 222.14 4.92326C223.288 4.92326 224.189 5.31156 224.844 6.08814C225.498 6.85984 225.825 7.86599 225.825 9.10657ZM227.562 13.1287V5.09177H228.587L228.741 6.24199C229.059 5.84637 229.454 5.5289 229.928 5.28958C230.407 5.04537 230.922 4.92326 231.474 4.92326C232.402 4.92326 233.088 5.18457 233.533 5.70718C233.977 6.2249 234.199 7.02346 234.199 8.10287V13.1287H232.976C232.976 9.90514 232.973 8.17858 232.969 7.94902C232.949 7.26523 232.81 6.7646 232.551 6.44713C232.297 6.12966 231.87 5.97092 231.269 5.97092C230.639 5.97092 230.114 6.12233 229.694 6.42515C229.274 6.72797 229 7.12115 228.873 7.60468C228.824 7.93192 228.8 8.30801 228.8 8.73293V13.1287H227.562ZM239.987 13.1287V5.09177H241.013L241.167 6.24199C241.484 5.84637 241.88 5.5289 242.353 5.28958C242.832 5.04537 243.347 4.92326 243.899 4.92326C244.827 4.92326 245.514 5.18457 245.958 5.70718C246.402 6.2249 246.625 7.02346 246.625 8.10287V13.1287H245.401C245.401 9.90514 245.399 8.17858 245.394 7.94902C245.374 7.26523 245.235 6.7646 244.976 6.44713C244.722 6.12966 244.295 5.97092 243.694 5.97092C243.064 5.97092 242.539 6.12233 242.119 6.42515C241.699 6.72797 241.425 7.12115 241.298 7.60468C241.25 7.93192 241.225 8.30801 241.225 8.73293V13.1287H239.987ZM248.383 10.4473V5.09177H249.614V10.4619C249.614 10.8136 249.663 11.1115 249.76 11.3557C249.863 11.5999 250.007 11.7904 250.193 11.9272C250.383 12.0591 250.596 12.1543 250.83 12.2129C251.069 12.2715 251.343 12.3008 251.651 12.3008C252.285 12.3008 252.779 12.1616 253.13 11.8832C253.487 11.6048 253.665 11.1311 253.665 10.4619V5.09177H254.896V10.4473C254.896 10.8576 254.837 11.2263 254.72 11.5535C254.603 11.8808 254.444 12.1543 254.244 12.3741C254.049 12.589 253.812 12.7673 253.533 12.9089C253.255 13.0506 252.959 13.1531 252.647 13.2166C252.339 13.2801 252.007 13.3119 251.651 13.3119C251.299 13.3119 250.967 13.2801 250.654 13.2166C250.342 13.1531 250.044 13.0506 249.76 12.9089C249.482 12.7624 249.24 12.5817 249.035 12.3668C248.835 12.147 248.676 11.8735 248.559 11.5462C248.442 11.219 248.383 10.8527 248.383 10.4473ZM259.285 13.2752C258.493 13.2752 257.932 13.0823 257.599 12.6965C257.267 12.3106 257.092 11.6879 257.072 10.8282V6.00023H255.878L255.929 5.19434L257.065 5.09177L257.482 3.25287L258.288 3.22356V5.09177H260.523V6.00023H258.288V10.6085C258.288 11.219 258.381 11.6488 258.567 11.8979C258.752 12.147 259.07 12.2715 259.519 12.2715C259.68 12.2715 260.029 12.2325 260.567 12.1543L260.618 13.1214C260.037 13.2239 259.592 13.2752 259.285 13.2752ZM265.527 5.0185C265.746 5.0185 265.947 5.03316 266.127 5.06246L266.083 6.19071C265.859 6.15164 265.663 6.1321 265.497 6.1321C264.813 6.1321 264.257 6.37142 263.827 6.85008C263.402 7.32384 263.189 7.91239 263.189 8.61571V13.1287H261.966C261.961 8.19567 261.959 5.51669 261.959 5.09177H262.977L263.094 6.53505C263.373 6.08082 263.727 5.7145 264.156 5.4361C264.586 5.1577 265.043 5.0185 265.527 5.0185ZM268.831 5.09177V13.1287H267.6V5.09177H268.831ZM268.831 2.16858V3.61918H267.6V2.16858H268.831ZM273.703 13.2752C272.911 13.2752 272.35 13.0823 272.018 12.6965C271.685 12.3106 271.51 11.6879 271.49 10.8282V6.00023H270.296L270.347 5.19434L271.483 5.09177L271.9 3.25287L272.706 3.22356V5.09177H274.941V6.00023H272.706V10.6085C272.706 11.219 272.799 11.6488 272.985 11.8979C273.17 12.147 273.488 12.2715 273.937 12.2715C274.098 12.2715 274.447 12.2325 274.985 12.1543L275.036 13.1214C274.455 13.2239 274.01 13.2752 273.703 13.2752ZM277.783 5.09177V13.1287H276.553V5.09177H277.783ZM277.783 2.16858V3.61918H276.553V2.16858H277.783ZM280.985 9.12855C280.985 10.081 281.195 10.8453 281.615 11.4217C282.04 11.9931 282.658 12.2789 283.469 12.2789C284.27 12.2789 284.873 11.9931 285.278 11.4217C285.688 10.8502 285.894 10.081 285.894 9.1139C285.894 8.13218 285.691 7.36047 285.285 6.79879C284.885 6.23223 284.272 5.94894 283.447 5.94894C282.646 5.94894 282.035 6.23711 281.615 6.81344C281.195 7.38978 280.985 8.16148 280.985 9.12855ZM287.161 9.10657C287.161 10.352 286.829 11.3631 286.165 12.1397C285.5 12.9114 284.582 13.2972 283.41 13.2972C282.282 13.2972 281.383 12.9065 280.714 12.125C280.05 11.3435 279.718 10.3398 279.718 9.1139C279.718 7.86354 280.052 6.85252 280.721 6.08082C281.39 5.30911 282.309 4.92326 283.476 4.92326C284.624 4.92326 285.525 5.31156 286.179 6.08814C286.834 6.85984 287.161 7.86599 287.161 9.10657ZM288.897 13.1287V5.09177H289.923L290.077 6.24199C290.394 5.84637 290.79 5.5289 291.264 5.28958C291.742 5.04537 292.258 4.92326 292.81 4.92326C293.738 4.92326 294.424 5.18457 294.868 5.70718C295.313 6.2249 295.535 7.02346 295.535 8.10287V13.1287H294.311C294.311 9.90514 294.309 8.17858 294.304 7.94902C294.285 7.26523 294.145 6.7646 293.887 6.44713C293.633 6.12966 293.205 5.97092 292.604 5.97092C291.974 5.97092 291.449 6.12233 291.029 6.42515C290.609 6.72797 290.336 7.12115 290.209 7.60468C290.16 7.93192 290.135 8.30801 290.135 8.73293V13.1287H288.897ZM297.323 15.1654C297.337 15.0238 297.379 14.6477 297.447 14.0372C297.52 13.4315 297.577 12.9211 297.616 12.506C297.655 12.0908 297.684 11.7269 297.704 11.4144H299.147V11.7367C298.908 12.7038 298.556 13.8467 298.092 15.1654H297.323ZM308.165 12.2422C308.971 12.2422 309.57 11.9834 309.96 11.4656C310.356 10.9479 310.554 10.208 310.554 9.24577C310.554 8.16148 310.363 7.34582 309.982 6.79879C309.606 6.24688 308.996 5.97092 308.151 5.97092C307.775 5.97092 307.443 6.05151 307.154 6.21269C306.866 6.37387 306.634 6.59854 306.458 6.88671C306.283 7.17487 306.148 7.507 306.056 7.88308C305.968 8.25428 305.924 8.66211 305.924 9.10657C305.924 9.73175 305.999 10.2739 306.151 10.733C306.307 11.1921 306.556 11.5584 306.898 11.8319C307.24 12.1055 307.662 12.2422 308.165 12.2422ZM310.576 11.9638C310.312 12.3692 309.96 12.6916 309.521 12.9309C309.081 13.1702 308.59 13.2899 308.048 13.2899C306.988 13.2899 306.158 12.9138 305.557 12.1616C304.957 11.4046 304.656 10.3765 304.656 9.07727C304.656 7.83668 304.961 6.83542 305.572 6.07349C306.183 5.30667 307.001 4.92326 308.026 4.92326C308.559 4.92326 309.059 5.04048 309.528 5.27492C310.002 5.50448 310.356 5.81463 310.59 6.20536L310.569 5.50937V1.97077L311.777 1.89751V13.1287H310.737L310.576 11.9638ZM315.353 5.09177V13.1287H314.122V5.09177H315.353ZM315.353 2.16858V3.61918H314.122V2.16858H315.353ZM322.291 6.579C321.934 6.14919 321.443 5.93429 320.818 5.93429C320.193 5.93429 319.682 6.15652 319.287 6.60098C318.891 7.04056 318.659 7.64376 318.591 8.41057H322.833C322.833 7.61445 322.652 7.00393 322.291 6.579ZM321.06 13.2972C319.892 13.2972 318.972 12.926 318.298 12.1836C317.629 11.4412 317.294 10.4253 317.294 9.13588C317.294 7.89041 317.619 6.88182 318.268 6.11012C318.918 5.33353 319.773 4.93792 320.833 4.92326C321.829 4.92326 322.618 5.26516 323.199 5.94894C323.785 6.62784 324.078 7.5363 324.078 8.67432C324.078 8.73293 324.076 8.84038 324.071 8.99668C324.071 9.15297 324.071 9.26531 324.071 9.33369H318.554C318.569 10.247 318.803 10.9601 319.257 11.473C319.717 11.9809 320.332 12.2349 321.104 12.2349C321.954 12.2349 322.806 12.0102 323.661 11.5609L323.851 12.5499C323.035 13.0481 322.105 13.2972 321.06 13.2972ZM328.342 13.2752C327.551 13.2752 326.989 13.0823 326.657 12.6965C326.325 12.3106 326.149 11.6879 326.13 10.8282V6.00023H324.935L324.987 5.19434L326.122 5.09177L326.54 3.25287L327.346 3.22356V5.09177H329.58V6.00023H327.346V10.6085C327.346 11.219 327.438 11.6488 327.624 11.8979C327.81 12.147 328.127 12.2715 328.577 12.2715C328.738 12.2715 329.087 12.2325 329.624 12.1543L329.675 13.1214C329.094 13.2239 328.65 13.2752 328.342 13.2752ZM330.73 15.1654C330.745 15.0238 330.787 14.6477 330.855 14.0372C330.928 13.4315 330.984 12.9211 331.023 12.506C331.063 12.0908 331.092 11.7269 331.111 11.4144H332.555V11.7367C332.315 12.7038 331.964 13.8467 331.5 15.1654H330.73ZM343.068 6.579C342.711 6.14919 342.22 5.93429 341.595 5.93429C340.97 5.93429 340.46 6.15652 340.064 6.60098C339.669 7.04056 339.437 7.64376 339.368 8.41057H343.61C343.61 7.61445 343.429 7.00393 343.068 6.579ZM341.837 13.2972C340.67 13.2972 339.749 12.926 339.075 12.1836C338.406 11.4412 338.071 10.4253 338.071 9.13588C338.071 7.89041 338.396 6.88182 339.046 6.11012C339.695 5.33353 340.55 4.93792 341.61 4.92326C342.606 4.92326 343.395 5.26516 343.976 5.94894C344.562 6.62784 344.856 7.5363 344.856 8.67432C344.856 8.73293 344.853 8.84038 344.848 8.99668C344.848 9.15297 344.848 9.26531 344.848 9.33369H339.331C339.346 10.247 339.581 10.9601 340.035 11.473C340.494 11.9809 341.109 12.2349 341.881 12.2349C342.731 12.2349 343.583 12.0102 344.438 11.5609L344.628 12.5499C343.813 13.0481 342.882 13.2972 341.837 13.2972ZM348.68 9.04063L345.845 5.09177H347.244L349.39 8.15415L351.544 5.09177H352.944L350.101 9.05529L353.017 13.1287H351.662L349.398 9.89781L347.134 13.1287H345.735L348.68 9.04063ZM358.746 6.579C358.39 6.14919 357.899 5.93429 357.274 5.93429C356.648 5.93429 356.138 6.15652 355.742 6.60098C355.347 7.04056 355.115 7.64376 355.046 8.41057H359.288C359.288 7.61445 359.108 7.00393 358.746 6.579ZM357.515 13.2972C356.348 13.2972 355.427 12.926 354.753 12.1836C354.084 11.4412 353.75 10.4253 353.75 9.13588C353.75 7.89041 354.074 6.88182 354.724 6.11012C355.374 5.33353 356.228 4.93792 357.288 4.92326C358.285 4.92326 359.073 5.26516 359.655 5.94894C360.241 6.62784 360.534 7.5363 360.534 8.67432C360.534 8.73293 360.531 8.84038 360.526 8.99668C360.526 9.15297 360.526 9.26531 360.526 9.33369H355.01C355.024 10.247 355.259 10.9601 355.713 11.473C356.172 11.9809 356.788 12.2349 357.559 12.2349C358.409 12.2349 359.261 12.0102 360.116 11.5609L360.307 12.5499C359.491 13.0481 358.561 13.2972 357.515 13.2972ZM365.838 5.0185C366.058 5.0185 366.258 5.03316 366.439 5.06246L366.395 6.19071C366.17 6.15164 365.975 6.1321 365.809 6.1321C365.125 6.1321 364.568 6.37142 364.138 6.85008C363.713 7.32384 363.501 7.91239 363.501 8.61571V13.1287H362.277C362.273 8.19567 362.27 5.51669 362.27 5.09177H363.288L363.406 6.53505C363.684 6.08082 364.038 5.7145 364.468 5.4361C364.898 5.1577 365.354 5.0185 365.838 5.0185ZM370.952 13.2972C369.77 13.2972 368.844 12.9138 368.175 12.147C367.511 11.3802 367.179 10.3765 367.179 9.13588C367.184 7.88552 367.523 6.87205 368.197 6.09547C368.876 5.314 369.804 4.92326 370.981 4.92326C371.396 4.92326 371.797 4.97455 372.183 5.07711C372.573 5.17968 372.881 5.314 373.106 5.48006L372.769 6.43248C372.197 6.12477 371.594 5.97092 370.959 5.97092C370.182 5.97092 369.567 6.2542 369.113 6.82077C368.663 7.38734 368.439 8.16148 368.439 9.1432C368.439 10.1005 368.661 10.86 369.106 11.4217C369.555 11.9785 370.175 12.2569 370.966 12.2569C371.596 12.2569 372.241 12.0859 372.901 11.744L373.054 12.7184C372.522 13.1043 371.821 13.2972 370.952 13.2972ZM376.087 5.09177V13.1287H374.857V5.09177H376.087ZM376.087 2.16858V3.61918H374.857V2.16858H376.087ZM380.791 13.2972C380.244 13.2972 379.738 13.2386 379.274 13.1214C378.815 13.0042 378.442 12.8527 378.153 12.6671L378.307 11.6341C379.123 12.0688 379.924 12.2862 380.71 12.2862C381.902 12.2862 382.515 11.8661 382.549 11.0261C382.549 10.6695 382.422 10.3887 382.168 10.1835C381.914 9.9784 381.416 9.74884 380.674 9.49486L380.066 9.2824C379.362 9.04796 378.859 8.75735 378.556 8.41057C378.258 8.0638 378.107 7.63155 378.102 7.11382C378.102 6.48376 378.354 5.96115 378.857 5.546C379.365 5.13084 380.058 4.92326 380.937 4.92326C381.846 4.92326 382.674 5.09909 383.421 5.45076L383.062 6.38852C382.305 6.07593 381.597 5.91964 380.937 5.91964C380.425 5.91964 380.022 6.02221 379.729 6.22734C379.44 6.42759 379.296 6.71088 379.296 7.07719C379.296 7.38978 379.401 7.6291 379.611 7.79517C379.821 7.96123 380.241 8.15171 380.872 8.36662C381.033 8.42523 381.235 8.49361 381.48 8.57175C382.29 8.8355 382.864 9.14809 383.201 9.50952C383.538 9.86606 383.707 10.3496 383.707 10.9601C383.697 11.7025 383.431 12.2789 382.908 12.6891C382.386 13.0945 381.68 13.2972 380.791 13.2972ZM390.015 6.579C389.658 6.14919 389.167 5.93429 388.542 5.93429C387.917 5.93429 387.407 6.15652 387.011 6.60098C386.615 7.04056 386.383 7.64376 386.315 8.41057H390.557C390.557 7.61445 390.376 7.00393 390.015 6.579ZM388.784 13.2972C387.617 13.2972 386.696 12.926 386.022 12.1836C385.353 11.4412 385.018 10.4253 385.018 9.13588C385.018 7.89041 385.343 6.88182 385.993 6.11012C386.642 5.33353 387.497 4.93792 388.557 4.92326C389.553 4.92326 390.342 5.26516 390.923 5.94894C391.509 6.62784 391.802 7.5363 391.802 8.67432C391.802 8.73293 391.8 8.84038 391.795 8.99668C391.795 9.15297 391.795 9.26531 391.795 9.33369H386.278C386.293 10.247 386.527 10.9601 386.982 11.473C387.441 11.9809 388.056 12.2349 388.828 12.2349C389.678 12.2349 390.53 12.0102 391.385 11.5609L391.575 12.5499C390.76 13.0481 389.829 13.2972 388.784 13.2972ZM393.253 15.1654C393.268 15.0238 393.309 14.6477 393.377 14.0372C393.451 13.4315 393.507 12.9211 393.546 12.506C393.585 12.0908 393.614 11.7269 393.634 11.4144H395.077V11.7367C394.838 12.7038 394.486 13.8467 394.022 15.1654H393.253ZM403.283 12.3082C403.864 12.3082 404.374 12.1494 404.814 11.8319C405.258 11.5096 405.544 11.0773 405.671 10.5352V9.17983C405.647 9.17983 405.498 9.19204 405.224 9.21647C404.955 9.24089 404.78 9.25554 404.697 9.26042C403.637 9.35322 402.897 9.52661 402.477 9.78059C402.062 10.0346 401.854 10.4424 401.854 11.0041C401.854 11.4339 401.981 11.7587 402.235 11.9785C402.489 12.1983 402.838 12.3082 403.283 12.3082ZM405.942 13.1287C405.869 12.8161 405.798 12.4791 405.73 12.1177C405.285 12.5621 404.868 12.8698 404.477 13.0408C404.086 13.2117 403.627 13.2972 403.099 13.2972C402.347 13.2972 401.742 13.1018 401.283 12.7111C400.828 12.3155 400.601 11.7489 400.601 11.0114C400.601 10.1909 400.911 9.58278 401.532 9.18716C402.157 8.79154 403.056 8.54489 404.228 8.44721C404.389 8.43255 404.631 8.41302 404.953 8.3886C405.28 8.35929 405.524 8.33731 405.686 8.32266V7.61201C405.686 7.04544 405.554 6.6254 405.29 6.35189C405.026 6.07837 404.611 5.94162 404.045 5.94162C403.253 5.94162 402.455 6.13698 401.649 6.52772C401.624 6.46911 401.561 6.3006 401.458 6.02221C401.356 5.73892 401.302 5.5924 401.297 5.58263C401.654 5.38238 402.076 5.22364 402.565 5.10642C403.058 4.98432 403.559 4.92326 404.067 4.92326C405.068 4.92326 405.788 5.14305 406.228 5.58263C406.672 6.01732 406.894 6.75972 406.894 7.80982V13.1287H405.942ZM409.004 13.1287V5.09177H410.03L410.184 6.24199C410.501 5.84637 410.897 5.5289 411.371 5.28958C411.849 5.04537 412.365 4.92326 412.917 4.92326C413.845 4.92326 414.531 5.18457 414.975 5.70718C415.42 6.2249 415.642 7.02346 415.642 8.10287V13.1287H414.419C414.419 9.90514 414.416 8.17858 414.411 7.94902C414.392 7.26523 414.253 6.7646 413.994 6.44713C413.74 6.12966 413.312 5.97092 412.712 5.97092C412.081 5.97092 411.556 6.12233 411.136 6.42515C410.716 6.72797 410.443 7.12115 410.316 7.60468C410.267 7.93192 410.243 8.30801 410.243 8.73293V13.1287H409.004ZM420.814 12.2422C421.62 12.2422 422.219 11.9834 422.609 11.4656C423.005 10.9479 423.203 10.208 423.203 9.24577C423.203 8.16148 423.012 7.34582 422.631 6.79879C422.255 6.24688 421.645 5.97092 420.8 5.97092C420.424 5.97092 420.092 6.05151 419.803 6.21269C419.515 6.37387 419.283 6.59854 419.107 6.88671C418.932 7.17487 418.797 7.507 418.704 7.88308C418.617 8.25428 418.573 8.66211 418.573 9.10657C418.573 9.73175 418.648 10.2739 418.8 10.733C418.956 11.1921 419.205 11.5584 419.547 11.8319C419.889 12.1055 420.311 12.2422 420.814 12.2422ZM423.225 11.9638C422.961 12.3692 422.609 12.6916 422.17 12.9309C421.73 13.1702 421.239 13.2899 420.697 13.2899C419.637 13.2899 418.807 12.9138 418.206 12.1616C417.606 11.4046 417.305 10.3765 417.305 9.07727C417.305 7.83668 417.61 6.83542 418.221 6.07349C418.831 5.30667 419.65 4.92326 420.675 4.92326C421.208 4.92326 421.708 5.04048 422.177 5.27492C422.651 5.50448 423.005 5.81463 423.239 6.20536L423.217 5.50937V1.97077L424.426 1.89751V13.1287H423.386L423.225 11.9638ZM432.471 13.2752C431.689 13.2752 431.135 13.0652 430.807 12.6452C430.485 12.2251 430.324 11.4949 430.324 10.4546V1.97077L431.54 1.89751V9.97107C431.54 10.3032 431.543 10.5694 431.547 10.7696C431.557 10.9699 431.577 11.1677 431.606 11.3631C431.635 11.5535 431.674 11.6976 431.723 11.7953C431.772 11.893 431.843 11.9834 431.936 12.0664C432.029 12.1445 432.138 12.1983 432.265 12.2276C432.397 12.252 432.558 12.2642 432.749 12.2642C432.905 12.2642 433.213 12.2349 433.672 12.1763L433.738 13.1507C433.235 13.2337 432.812 13.2752 432.471 13.2752ZM435.929 5.09177V13.1287H434.698V5.09177H435.929ZM435.929 2.16858V3.61918H434.698V2.16858H435.929ZM441.291 2.75468C440.783 2.75468 440.434 2.90121 440.244 3.19426C440.058 3.48731 439.965 3.99527 439.965 4.71813V5.09177H441.899V6.00023H439.965V13.1287H438.742V6.00023H437.438L437.54 5.19434L438.742 5.09177V4.73278C438.752 3.69733 438.945 2.94761 439.321 2.48361C439.702 2.01473 440.315 1.78029 441.16 1.78029C441.487 1.78029 441.887 1.81692 442.361 1.89018L442.28 2.84992C441.846 2.78643 441.516 2.75468 441.291 2.75468ZM447.702 6.579C447.345 6.14919 446.854 5.93429 446.229 5.93429C445.604 5.93429 445.094 6.15652 444.698 6.60098C444.302 7.04056 444.07 7.64376 444.002 8.41057H448.244C448.244 7.61445 448.063 7.00393 447.702 6.579ZM446.471 13.2972C445.304 13.2972 444.383 12.926 443.709 12.1836C443.04 11.4412 442.705 10.4253 442.705 9.13588C442.705 7.89041 443.03 6.88182 443.68 6.11012C444.329 5.33353 445.184 4.93792 446.244 4.92326C447.24 4.92326 448.029 5.26516 448.61 5.94894C449.196 6.62784 449.49 7.5363 449.49 8.67432C449.49 8.73293 449.487 8.84038 449.482 8.99668C449.482 9.15297 449.482 9.26531 449.482 9.33369H443.965C443.98 10.247 444.215 10.9601 444.669 11.473C445.128 11.9809 445.743 12.2349 446.515 12.2349C447.365 12.2349 448.217 12.0102 449.072 11.5609L449.262 12.5499C448.447 13.0481 447.516 13.2972 446.471 13.2972ZM453.585 13.2972C453.038 13.2972 452.532 13.2386 452.068 13.1214C451.609 13.0042 451.236 12.8527 450.947 12.6671L451.101 11.6341C451.917 12.0688 452.718 12.2862 453.504 12.2862C454.696 12.2862 455.309 11.8661 455.343 11.0261C455.343 10.6695 455.216 10.3887 454.962 10.1835C454.708 9.9784 454.21 9.74884 453.468 9.49486L452.86 9.2824C452.156 9.04796 451.653 8.75735 451.35 8.41057C451.052 8.0638 450.901 7.63155 450.896 7.11382C450.896 6.48376 451.148 5.96115 451.651 5.546C452.159 5.13084 452.852 4.92326 453.731 4.92326C454.64 4.92326 455.468 5.09909 456.215 5.45076L455.856 6.38852C455.099 6.07593 454.391 5.91964 453.731 5.91964C453.219 5.91964 452.816 6.02221 452.523 6.22734C452.234 6.42759 452.09 6.71088 452.09 7.07719C452.09 7.38978 452.195 7.6291 452.405 7.79517C452.615 7.96123 453.035 8.15171 453.665 8.36662C453.827 8.42523 454.029 8.49361 454.274 8.57175C455.084 8.8355 455.658 9.14809 455.995 9.50952C456.332 9.86606 456.501 10.3496 456.501 10.9601C456.491 11.7025 456.225 12.2789 455.702 12.6891C455.18 13.0945 454.474 13.2972 453.585 13.2972ZM460.743 13.2752C459.951 13.2752 459.39 13.0823 459.058 12.6965C458.726 12.3106 458.55 11.6879 458.53 10.8282V6.00023H457.336L457.387 5.19434L458.523 5.09177L458.94 3.25287L459.746 3.22356V5.09177H461.981V6.00023H459.746V10.6085C459.746 11.219 459.839 11.6488 460.025 11.8979C460.21 12.147 460.528 12.2715 460.977 12.2715C461.138 12.2715 461.488 12.2325 462.025 12.1543L462.076 13.1214C461.495 13.2239 461.05 13.2752 460.743 13.2752ZM462.354 5.09177H463.651L466.186 11.7807L468.443 5.09177H469.739C467.571 11.0602 466.45 14.1373 466.377 14.3229C466.04 15.1678 465.632 15.7857 465.153 16.1764C464.674 16.5721 464.044 16.7699 463.263 16.7699C463.028 16.7699 462.782 16.7503 462.523 16.7113L462.45 15.6709C462.723 15.6905 462.928 15.7002 463.065 15.7002C463.617 15.7002 464.035 15.5977 464.318 15.3925C464.606 15.1923 464.862 14.8137 465.087 14.2569C465.287 13.7441 465.436 13.3485 465.534 13.0701L462.354 5.09177ZM473.029 13.2752C472.247 13.2752 471.693 13.0652 471.366 12.6452C471.043 12.2251 470.882 11.4949 470.882 10.4546V1.97077L472.098 1.89751V9.97107C472.098 10.3032 472.101 10.5694 472.106 10.7696C472.116 10.9699 472.135 11.1677 472.164 11.3631C472.194 11.5535 472.233 11.6976 472.282 11.7953C472.33 11.893 472.401 11.9834 472.494 12.0664C472.587 12.1445 472.697 12.1983 472.824 12.2276C472.956 12.252 473.117 12.2642 473.307 12.2642C473.464 12.2642 473.771 12.2349 474.23 12.1763L474.296 13.1507C473.793 13.2337 473.371 13.2752 473.029 13.2752ZM479.674 6.579C479.317 6.14919 478.826 5.93429 478.201 5.93429C477.576 5.93429 477.066 6.15652 476.67 6.60098C476.274 7.04056 476.042 7.64376 475.974 8.41057H480.216C480.216 7.61445 480.035 7.00393 479.674 6.579ZM478.443 13.2972C477.276 13.2972 476.355 12.926 475.681 12.1836C475.012 11.4412 474.677 10.4253 474.677 9.13588C474.677 7.89041 475.002 6.88182 475.652 6.11012C476.301 5.33353 477.156 4.93792 478.216 4.92326C479.212 4.92326 480.001 5.26516 480.582 5.94894C481.168 6.62784 481.461 7.5363 481.461 8.67432C481.461 8.73293 481.459 8.84038 481.454 8.99668C481.454 9.15297 481.454 9.26531 481.454 9.33369H475.937C475.952 10.247 476.186 10.9601 476.641 11.473C477.1 11.9809 477.715 12.2349 478.487 12.2349C479.337 12.2349 480.189 12.0102 481.044 11.5609L481.234 12.5499C480.419 13.0481 479.488 13.2972 478.443 13.2972ZM484.026 13.2166C483.723 13.2166 483.483 13.1214 483.308 12.9309C483.137 12.7355 483.051 12.5084 483.051 12.2495C483.051 11.9858 483.137 11.7587 483.308 11.5682C483.479 11.3777 483.718 11.2825 484.026 11.2825C484.333 11.2825 484.573 11.3777 484.744 11.5682C484.915 11.7587 485 11.9858 485 12.2495C485 12.5133 484.915 12.7404 484.744 12.9309C484.573 13.1214 484.333 13.2166 484.026 13.2166Z" fill="white"/>
</svg>
